<svg width="20" height="20" viewBox="0 0 20 20" fill="none" xmlns="http://www.w3.org/2000/svg">
<path d="M0.00250244 10C0.00250244 15.3516 4.33844 19.6875 9.69 19.6875C15.0416 19.6875 19.3775 15.3516 19.3775 10C19.3775 4.64844 15.0416 0.3125 9.69 0.3125C4.33844 0.3125 0.00250244 4.64844 0.00250244 10ZM6.63922 5.24219L14.1314 6.83203C14.6627 6.94922 14.7916 7.26562 14.5416 7.70703L12.7564 10.1289L13.8814 11.2969C14.0103 11.4258 14.1197 11.5352 14.1197 11.7852L11.6548 11.6133L7.60016 7.125C7.42828 6.92969 7.33063 7.16797 7.5025 7.42578L10.9947 12.9727L10.2486 15.3633C10.0845 15.8828 9.72907 15.8945 9.47907 15.2539L5.8775 5.91406C5.72125 5.48047 5.98297 5.10156 6.63922 5.24219Z" fill="black"/>
</svg>
