<svg width="41" height="41" viewBox="0 0 41 41" fill="none" xmlns="http://www.w3.org/2000/svg">
<path d="M34.8543 5.96559C32.9743 4.06752 30.7354 2.56253 28.2679 1.53835C25.8004 0.514164 23.1537 -0.00873947 20.482 0.000110485C9.28764 0.000110485 0.16402 9.12259 0.16402 20.3156C0.16402 23.903 1.10714 27.388 2.87035 30.463L0 41L10.7638 38.171C13.7367 39.7905 17.0786 40.6515 20.482 40.6515C31.6764 40.6515 40.8 31.529 40.8 20.3361C40.8 14.9036 38.6882 9.79908 34.8543 5.96559ZM20.482 37.2075C17.4476 37.2075 14.4748 36.3875 11.871 34.85L11.2559 34.481L4.8591 36.162L6.5608 29.93L6.15075 29.2945C4.46452 26.603 3.56933 23.4916 3.56744 20.3156C3.56744 11.0086 11.1534 3.4236 20.4615 3.4236C24.9721 3.4236 29.2161 5.1866 32.394 8.38459C33.9678 9.9505 35.2149 11.8133 36.0631 13.8649C36.9113 15.9165 37.3437 18.1161 37.3351 20.3361C37.3761 29.643 29.7901 37.2075 20.482 37.2075ZM29.7491 24.5795C29.2366 24.3335 26.7353 23.1035 26.2842 22.9191C25.8127 22.7551 25.4846 22.6731 25.1361 23.165C24.7875 23.6775 23.8239 24.8255 23.5369 25.1535C23.2498 25.502 22.9423 25.543 22.4297 25.2765C21.9172 25.0305 20.277 24.477 18.3497 22.7551C16.8326 21.4021 15.8279 19.7416 15.5204 19.2291C15.2334 18.7166 15.4794 18.4501 15.7459 18.1836C15.9715 17.9581 16.2585 17.5891 16.5045 17.3021C16.7506 17.0151 16.8531 16.7896 17.0171 16.4616C17.1811 16.1131 17.0991 15.8261 16.9761 15.5801C16.8531 15.3341 15.8279 12.8331 15.4179 11.8081C15.0078 10.8241 14.5773 10.9471 14.2697 10.9266H13.2856C12.9371 10.9266 12.404 11.0496 11.9325 11.5621C11.4814 12.0746 10.1692 13.3046 10.1692 15.8056C10.1692 18.3066 11.994 20.7256 12.24 21.0536C12.486 21.4021 15.8279 26.527 20.9126 28.7205C22.1222 29.2535 23.0653 29.561 23.8034 29.7865C25.0131 30.176 26.1202 30.1145 27.0018 29.9915C27.9859 29.848 30.0157 28.7615 30.4257 27.5725C30.8563 26.3835 30.8563 25.379 30.7128 25.1535C30.5692 24.928 30.2617 24.8255 29.7491 24.5795Z" fill="black"/>
</svg>
