<svg width="41" height="41" viewBox="0 0 41 41" fill="none" xmlns="http://www.w3.org/2000/svg">
<path d="M5.86561 6.0456C3.96754 7.9256 2.46255 10.1645 1.43837 12.632C0.414188 15.0995 -0.108715 17.7462 -0.0998651 20.4179C-0.0998651 31.6123 9.02261 40.7359 20.2156 40.7359C23.803 40.7359 27.288 39.7928 30.363 38.0296L40.9 40.8999L38.071 30.1361C39.6905 27.1632 40.5515 23.8213 40.5515 20.4179C40.5515 9.2235 31.429 0.0999031 20.2361 0.0999031C14.8036 0.0999031 9.6991 2.2117 5.86561 6.0456ZM37.1075 20.4179C37.1075 23.4523 36.2875 26.4251 34.75 29.0289L34.381 29.644L36.062 36.0408L29.83 34.3391L29.1945 34.7492C26.503 36.4354 23.3916 37.3306 20.2156 37.3325C10.9086 37.3325 3.32362 29.7465 3.32362 20.4384C3.32362 15.9278 5.08662 11.6838 8.28461 8.5059C9.85052 6.9321 11.7133 5.685 13.7649 4.8368C15.8165 3.9886 18.0161 3.5562 20.2361 3.5648C29.543 3.5238 37.1075 11.1098 37.1075 20.4179ZM24.4795 11.1508C24.2335 11.6633 23.0035 14.1646 22.8191 14.6157C22.6551 15.0872 22.5731 15.4153 23.065 15.7638C23.5775 16.1124 24.7255 17.076 25.0535 17.363C25.402 17.6501 25.443 17.9576 25.1765 18.4702C24.9305 18.9827 24.377 20.6229 22.6551 22.5502C21.3021 24.0673 19.6416 25.072 19.1291 25.3795C18.6166 25.6665 18.3501 25.4205 18.0836 25.154C17.8581 24.9284 17.4891 24.6414 17.2021 24.3954C16.9151 24.1493 16.6896 24.0468 16.3616 23.8828C16.0131 23.7188 15.7261 23.8008 15.4801 23.9238C15.2341 24.0468 12.7331 25.072 11.7081 25.482C10.7241 25.8921 10.8471 26.3226 10.8266 26.6302V27.6143C10.8266 27.9628 10.9496 28.4959 11.4621 28.9674C11.9746 29.4185 13.2046 30.7307 15.7056 30.7307C18.2066 30.7307 20.6256 28.9059 20.9536 28.6599C21.3021 28.4139 26.427 25.072 28.6205 19.9873C29.1535 18.7777 29.461 17.8346 29.6865 17.0965C30.076 15.8868 30.0145 14.7797 29.8915 13.8981C29.748 12.914 28.6615 10.8842 27.4725 10.4742C26.2835 10.0436 25.279 10.0436 25.0535 10.1871C24.828 10.3307 24.7255 10.6382 24.4795 11.1508Z" fill="black"/>
</svg>
