<svg width="48" height="48" viewBox="0 0 48 48" fill="none" xmlns="http://www.w3.org/2000/svg">
<path d="M24 0C10.768 0 0 10.768 0 24C0 37.232 10.768 48 24 48C37.232 48 48 37.232 48 24C48 10.768 37.232 0 24 0ZM24 1.55C36.384 1.55 46.45 11.616 46.45 24C46.45 36.384 36.384 46.45 24 46.45C11.616 46.45 1.55 36.384 1.55 24C1.55 11.616 11.616 1.55 24 1.55ZM17.808 13.168C15.088 13.168 12.768 15.488 12.768 19.742L15.472 20.128C15.856 17.424 16.624 16.258 18.176 16.258C19.728 16.258 20.51 16.638 23.216 18.192C25.918 19.744 26.686 20.128 29.406 20.128C32.126 20.128 34.834 18.19 34.45 13.55H31.74C31.74 15.87 30.976 17.04 29.424 17.04C27.872 17.04 27.086 16.658 23.998 15.106C20.91 13.554 20.526 13.168 17.806 13.168H17.808ZM22.062 20.128V37.938H25.168V21.298L22.062 20.128Z" fill="black"/>
</svg>
