<svg width="48" height="48" viewBox="0 0 48 48" fill="none" xmlns="http://www.w3.org/2000/svg">
<path fill-rule="evenodd" clip-rule="evenodd" d="M24.0352 47.334C36.8883 47.3145 47.293 36.8591 47.293 23.9621C47.293 11.2747 36.9363 0.825744 24.5632 0.604869C11.5687 0.373119 0.710163 10.9174 0.706788 23.7037C0.703038 36.8584 11.0613 47.3527 24.0352 47.334ZM23.9973 1.73624C36.3374 1.73212 46.1695 11.7581 46.1658 24.3412C46.1617 36.2209 36.0689 46.1587 24.0063 46.1614C11.7172 46.164 1.83441 36.2002 1.83479 23.8084C1.83554 11.736 11.872 1.74037 23.9973 1.73624ZM14.6838 13.461C14.8855 14.1334 14.3208 14.3674 13.7204 14.4142C13.0885 14.463 12.457 14.5106 11.7235 14.5665C14.1445 21.7792 16.5292 28.8851 18.9704 36.1564C19.1444 35.8717 19.216 35.7915 19.2475 35.6977C20.5878 31.692 21.9355 27.6889 23.2417 23.6719C23.3609 23.3055 23.3017 22.8202 23.1712 22.4437C22.48 20.4487 21.652 18.4972 21.046 16.4782C20.6317 15.096 20.0819 14.2016 18.448 14.3617C18.1698 14.3891 17.83 13.7902 17.5184 13.4809C17.8953 13.2559 18.2695 12.8419 18.6498 12.8362C21.9769 12.7851 25.3045 12.7861 28.6315 12.8392C29.0133 12.8456 29.3875 13.2705 29.7644 13.5011C29.4344 13.8026 29.1498 14.2549 28.7639 14.3715C28.1448 14.5582 27.4582 14.523 26.7172 14.589L33.973 36.174C35.0722 32.523 36.0948 29.1705 37.0893 25.8094C37.9765 22.809 37.4478 20.007 35.8435 17.3644C35.3613 16.5697 34.7688 15.7987 34.4954 14.9321C34.1849 13.9462 33.9269 12.8239 34.0915 11.835C34.3709 10.1591 35.6568 9.32699 37.3968 9.16762C27.8748 0.330369 12.9115 3.49387 7.39791 13.0957C9.52041 12.9979 11.5469 12.8692 13.5749 12.8415C13.9582 12.8366 14.5938 13.1606 14.6838 13.461ZM18.4777 42.7001C18.4334 42.8295 18.4308 42.9735 18.3959 43.1884C22.4995 44.3261 26.524 44.244 30.643 42.8561L24.3505 25.6211C22.3368 31.4752 20.4055 37.0867 18.4777 42.7001ZM15.3067 41.9209L5.82629 15.9146C1.54941 24.2689 4.80291 37.0151 15.3067 41.9209ZM43.9672 25.2101C44.2679 21.2599 42.9052 15.7905 41.7284 15.0382C41.5972 16.4914 41.6887 18.108 41.2717 19.581C40.2903 23.0516 39.0903 26.4619 37.9345 29.8815C36.6783 33.5985 35.3725 37.2986 34.0882 41.0062C40.1227 37.4291 43.4388 32.1495 43.9672 25.2101Z" fill="#0073AA"/>
</svg>
