<svg width="32" height="32" viewBox="0 0 32 32" fill="none" xmlns="http://www.w3.org/2000/svg">
<path d="M20.3333 20.3333C22.7266 20.3333 24.6667 18.3932 24.6667 16C24.6667 13.6068 22.7266 11.6667 20.3333 11.6667C17.9401 11.6667 16 13.6068 16 16C16 18.3932 17.9401 20.3333 20.3333 20.3333Z" stroke="black" stroke-width="0.666667" stroke-linecap="round" stroke-linejoin="round"/>
<path d="M11.6666 20.3333C10.8095 20.3333 9.97173 20.5875 9.25912 21.0636C8.5465 21.5398 7.99109 22.2166 7.66311 23.0084C7.33513 23.8002 7.24932 24.6715 7.41652 25.5121C7.58372 26.3526 7.99643 27.1248 8.60246 27.7308C9.20849 28.3368 9.98061 28.7495 10.8212 28.9167C11.6618 29.0839 12.5331 28.9981 13.3249 28.6701C14.1167 28.3422 14.7935 27.7868 15.2696 27.0741C15.7458 26.3615 15.9999 25.5237 15.9999 24.6667V20.3333M11.6666 20.3333H15.9999M11.6666 20.3333C10.5173 20.3333 9.41512 19.8768 8.60246 19.0641C7.7898 18.2515 7.33325 17.1493 7.33325 16C7.33325 14.8507 7.7898 13.7485 8.60246 12.9359C9.41512 12.1232 10.5173 11.6667 11.6666 11.6667M15.9999 20.3333V11.6667M15.9999 3H20.3333C21.4825 3 22.5847 3.45655 23.3974 4.2692C24.21 5.08186 24.6666 6.18406 24.6666 7.33333C24.6666 8.4826 24.21 9.58481 23.3974 10.3975C22.5847 11.2101 21.4825 11.6667 20.3333 11.6667H15.9999M15.9999 3V11.6667M15.9999 3H11.6666C10.5173 3 9.41512 3.45655 8.60246 4.2692C7.7898 5.08186 7.33325 6.18406 7.33325 7.33333C7.33325 8.4826 7.7898 9.58481 8.60246 10.3975C9.41512 11.2101 10.5173 11.6667 11.6666 11.6667M15.9999 11.6667H11.6666" stroke="black" stroke-width="0.666667" stroke-linecap="round" stroke-linejoin="round"/>
</svg>
