<svg width="28" height="28" viewBox="0 0 28 28" fill="none" xmlns="http://www.w3.org/2000/svg">
<path d="M19 14C19 15.3261 18.4733 16.5979 17.5356 17.5355C16.5979 18.4732 15.3261 19 14 19C12.674 19 11.4022 18.4732 10.4645 17.5355C9.52683 16.5979 9.00005 15.3261 9.00005 14C9.00005 12.6739 9.52683 11.4022 10.4645 10.4645C11.4022 9.52679 12.674 9.00001 14 9.00001C15.3261 9.00001 16.5979 9.52679 17.5356 10.4645C18.4733 11.4022 19 12.6739 19 14ZM18 14C18 12.9391 17.5786 11.9217 16.8285 11.1716C16.0783 10.4214 15.0609 10 14 10C12.9392 10 11.9218 10.4214 11.1716 11.1716C10.4215 11.9217 10 12.9391 10 14C10 15.0609 10.4215 16.0783 11.1716 16.8284C11.9218 17.5786 12.9392 18 14 18C15.0609 18 16.0783 17.5786 16.8285 16.8284C17.5786 16.0783 18 15.0609 18 14ZM3.90005 4.30401C4.03998 4.16219 4.22056 4.06742 4.41676 4.03284C4.61297 3.99826 4.81507 4.02558 4.99505 4.11101L6.79505 4.94101C7.079 5.07209 7.38974 5.13476 7.7023 5.12398C8.01487 5.11319 8.32054 5.02926 8.59479 4.87891C8.86903 4.72856 9.10419 4.516 9.28138 4.25829C9.45857 4.00057 9.57285 3.7049 9.61505 3.39501L9.91205 1.21901C9.93601 1.02865 10.0164 0.849839 10.143 0.70564C10.2696 0.56144 10.4364 0.458468 10.622 0.410007C11.7269 0.136579 12.8609 -0.00110354 13.999 6.66058e-06C15.164 6.66058e-06 16.2951 0.142007 17.3771 0.410007C17.5627 0.458468 17.7295 0.56144 17.8561 0.70564C17.9826 0.849839 18.0631 1.02865 18.087 1.21901L18.3841 3.39501C18.4263 3.70476 18.5406 4.0003 18.7177 4.25791C18.8948 4.51551 19.1299 4.728 19.404 4.87833C19.6781 5.02866 19.9836 5.11264 20.2961 5.12352C20.6085 5.1344 20.9191 5.07189 21.203 4.94101L23.003 4.11101C23.183 4.02558 23.3851 3.99826 23.5813 4.03284C23.7775 4.06742 23.9581 4.16219 24.098 4.30401C25.6669 5.93638 26.8164 7.92488 27.448 10.099C27.5008 10.2913 27.4923 10.4952 27.4239 10.6825C27.3554 10.8698 27.2304 11.0311 27.066 11.144L25.33 12.364C25.0674 12.5485 24.853 12.7936 24.705 13.0784C24.557 13.3632 24.4798 13.6795 24.4798 14.0005C24.4798 14.3215 24.557 14.6378 24.705 14.9226C24.853 15.2074 25.0674 15.4525 25.33 15.637L27.066 16.857C27.2302 16.9699 27.3551 17.131 27.4235 17.3181C27.492 17.5051 27.5006 17.7089 27.448 17.901C26.8164 20.0751 25.6669 22.0636 24.098 23.696C23.9582 23.8376 23.7778 23.9322 23.5818 23.9668C23.3858 24.0014 23.1839 23.9742 23.004 23.889L21.202 23.059C20.9182 22.9283 20.6077 22.866 20.2953 22.8769C19.983 22.8879 19.6776 22.9719 19.4037 23.1223C19.1297 23.2726 18.8947 23.485 18.7177 23.7425C18.5406 24 18.4263 24.2954 18.3841 24.605L18.087 26.781C18.0631 26.9714 17.9826 27.1502 17.8561 27.2944C17.7295 27.4386 17.5627 27.5415 17.3771 27.59C16.2719 27.8635 15.1375 28.0012 13.999 28C12.8606 28.0012 11.7262 27.8635 10.621 27.59C10.4354 27.5415 10.2686 27.4386 10.142 27.2944C10.0154 27.1502 9.93501 26.9714 9.91105 26.781L9.61505 24.605C9.57285 24.2951 9.45857 23.9994 9.28138 23.7417C9.10419 23.484 8.86903 23.2714 8.59479 23.1211C8.32054 22.9708 8.01487 22.8868 7.7023 22.876C7.38974 22.8653 7.079 22.9279 6.79505 23.059L4.99505 23.889C4.81507 23.9744 4.61297 24.0018 4.41676 23.9672C4.22056 23.9326 4.03998 23.8378 3.90005 23.696C2.3311 22.0633 1.18157 20.0745 0.55005 17.9C0.49732 17.7077 0.505768 17.5038 0.574223 17.3165C0.642678 17.1293 0.767742 16.968 0.93205 16.855L2.66905 15.635C2.9317 15.4505 3.14608 15.2054 3.29407 14.9206C3.44206 14.6358 3.51932 14.3195 3.51932 13.9985C3.51932 13.6775 3.44206 13.3612 3.29407 13.0764C3.14608 12.7916 2.9317 12.5465 2.66905 12.362L0.93205 11.142C0.767742 11.0291 0.642678 10.8678 0.574223 10.6805C0.505768 10.4932 0.49732 10.2893 0.55005 10.097C1.18216 7.92395 2.33165 5.93553 3.90005 4.30401ZM1.52205 10.337L3.24305 11.546C4.94405 12.741 4.94405 15.261 3.24305 16.456L1.52305 17.665C2.1082 19.6545 3.16083 21.4752 4.59305 22.975L6.37705 22.152C6.80282 21.9558 7.26864 21.8621 7.73717 21.8784C8.20569 21.8947 8.66387 22.0206 9.07495 22.246C9.48603 22.4714 9.83857 22.7899 10.1043 23.1762C10.37 23.5624 10.5415 24.0055 10.605 24.47L10.9 26.63C11.892 26.872 12.93 27.001 14 27.001C15.0439 27.0022 16.084 26.8776 17.098 26.63L17.393 24.47C17.4566 24.0055 17.6281 23.5624 17.8938 23.1762C18.1595 22.7899 18.5121 22.4714 18.9232 22.246C19.3342 22.0206 19.7924 21.8947 20.2609 21.8784C20.7295 21.8621 21.1953 21.9558 21.621 22.152L23.406 22.974C24.8383 21.4742 25.8909 19.6535 26.476 17.664L24.7561 16.456C24.362 16.1792 24.0403 15.8117 23.8183 15.3844C23.5962 14.957 23.4803 14.4826 23.4803 14.001C23.4803 13.5194 23.5962 13.045 23.8183 12.6177C24.0403 12.1904 24.362 11.8228 24.7561 11.546L26.476 10.337C25.8909 8.34748 24.8383 6.5268 23.406 5.02701L21.621 5.85001C21.1953 6.04623 20.7295 6.13994 20.2609 6.12362C19.7924 6.1073 19.3342 5.9814 18.9232 5.75603C18.5121 5.53065 18.1595 5.21207 17.8938 4.82585C17.6281 4.43962 17.4566 3.99649 17.393 3.53201L17.098 1.37201C16.0837 1.124 15.0432 0.999097 13.999 1.00001C12.93 1.00001 11.892 1.12901 10.9 1.37101L10.605 3.53101C10.5415 3.99549 10.37 4.43862 10.1043 4.82485C9.83857 5.21107 9.48603 5.52965 9.07495 5.75503C8.66387 5.9804 8.20569 6.1063 7.73717 6.12262C7.26864 6.13894 6.80282 6.04523 6.37705 5.84901L4.59305 5.02701C3.16083 6.5268 2.1072 8.34748 1.52205 10.337Z" fill="black"/>
</svg>
